<svg width="24" height="24" viewBox="0 0 24 24" fill="none" xmlns="http://www.w3.org/2000/svg">
  <path d="M4 22C4 19.9793 4.80272 18.0414 6.23157 16.6125C7.66042 15.1837 9.59835 14.381 11.619 14.381C13.6397 14.381 15.5777 15.1837 17.0065 16.6125C18.4354 18.0414 19.2381 19.9793 19.2381 22H17.3333C17.3333 20.4845 16.7313 19.031 15.6597 17.9594C14.588 16.8878 13.1346 16.2857 11.619 16.2857C10.1035 16.2857 8.65007 16.8878 7.57844 17.9594C6.5068 19.031 5.90476 20.4845 5.90476 22H4ZM11.619 13.4286C8.4619 13.4286 5.90476 10.8714 5.90476 7.71429C5.90476 4.55714 8.4619 2 11.619 2C14.7762 2 17.3333 4.55714 17.3333 7.71429C17.3333 10.8714 14.7762 13.4286 11.619 13.4286ZM11.619 11.5238C13.7238 11.5238 15.4286 9.81905 15.4286 7.71429C15.4286 5.60952 13.7238 3.90476 11.619 3.90476C9.51429 3.90476 7.80952 5.60952 7.80952 7.71429C7.80952 9.81905 9.51429 11.5238 11.619 11.5238Z" fill="#7969E6"/>
</svg>
